<svg xmlns="http://www.w3.org/2000/svg" xmlns:xlink="http://www.w3.org/1999/xlink" style="isolation:isolate" width="64" height="64" viewBox="0 0 48 48"><defs><linearGradient id="_lgradient_7" x1="0" x2="1" y1=".5" y2=".5"><stop offset="0%" style="stop-color:#ffe53b"/><stop offset="98.696%" style="stop-color:#ff005b"/></linearGradient></defs><path d="M 4 2 L 14 2 C 14.552 2 15 2.448 15 3 L 15 5 C 15 5.552 14.552 6 14 6 L 4 6 C 3.448 6 3 5.552 3 5 L 3 3 C 3 2.448 3.448 2 4 2 Z" style="stroke:none;fill:url(#_lgradient_7);stroke-miterlimit:10"/><defs><linearGradient id="_lgradient_8" x1="0" x2="1" y1=".5" y2=".5"><stop offset="0%" style="stop-color:#5433ff"/><stop offset="51.739%" style="stop-color:#20bdff"/><stop offset="98.261%" style="stop-color:#a5fecb"/></linearGradient></defs><path d="M 19 2 L 29 2 C 29.552 2 30 2.448 30 3 L 30 5 C 30 5.552 29.552 6 29 6 L 19 6 C 18.448 6 18 5.552 18 5 L 18 3 C 18 2.448 18.448 2 19 2 Z" style="stroke:none;fill:url(#_lgradient_8);stroke-miterlimit:10"/><defs><linearGradient id="_lgradient_9" x1="0" x2="1" y1=".5" y2=".5"><stop offset="0%" style="stop-color:#f7f206"/><stop offset="97.826%" style="stop-color:#ffbb24"/></linearGradient></defs><path d="M 19 9 L 29 9 C 29.552 9 30 9.448 30 10 L 30 12 C 30 12.552 29.552 13 29 13 L 19 13 C 18.448 13 18 12.552 18 12 L 18 10 C 18 9.448 18.448 9 19 9 Z" style="stroke:none;fill:url(#_lgradient_9);stroke-miterlimit:10"/><defs><linearGradient id="_lgradient_10" x1=".576" x2=".128" y1=".387" y2=".792"><stop offset="0%" style="stop-color:#d300dc"/><stop offset="100%" style="stop-color:#8700ff"/></linearGradient></defs><path d="M 34 9 L 44 9 C 44.552 9 45 9.448 45 10 L 45 12 C 45 12.552 44.552 13 44 13 L 34 13 C 33.448 13 33 12.552 33 12 L 33 10 C 33 9.448 33.448 9 34 9 Z" style="stroke:none;fill:url(#_lgradient_10);stroke-miterlimit:10"/><defs><linearGradient id="_lgradient_11" x1=".183" x2=".903" y1=".249" y2=".903"><stop offset="2.609%" style="stop-color:#b3ffab"/><stop offset="98.696%" style="stop-color:#12fff7"/></linearGradient></defs><path d="M 34 2 L 44 2 C 44.552 2 45 2.448 45 3 L 45 5 C 45 5.552 44.552 6 44 6 L 34 6 C 33.448 6 33 5.552 33 5 L 33 3 C 33 2.448 33.448 2 34 2 Z" style="stroke:none;fill:url(#_lgradient_11);stroke-miterlimit:10"/><linearGradient id="_lgradient_12" x1=".219" x2="1.099" y1=".175" y2="1.118" gradientTransform="matrix(33,0,0,22,7.5,22)" gradientUnits="userSpaceOnUse"><stop offset="0%" stop-opacity="1" style="stop-color:#fccb90"/><stop offset="83.913%" stop-opacity="1" style="stop-color:#d57eeb"/></linearGradient><path fill="url(#_lgradient_12)" fill-rule="evenodd" d="M 9.5 40 L 38.5 40 C 39.604 40 40.5 40.896 40.5 42 L 40.5 42 C 40.5 43.104 39.604 44 38.5 44 L 9.5 44 C 8.396 44 7.5 43.104 7.5 42 L 7.5 42 C 7.5 40.896 8.396 40 9.5 40 Z M 24 26 C 24 23.792 25.792 22 28 22 C 30.208 22 32 23.792 32 26 C 32 28.208 30.208 30 28 30 C 25.792 30 24 28.208 24 26 Z"/></svg>