<svg xmlns="http://www.w3.org/2000/svg" xmlns:svg="http://www.w3.org/2000/svg" xmlns:xlink="http://www.w3.org/1999/xlink" id="svg1" width="48" height="48" version="1.1" viewBox="0 0 12.7 12.7" xml:space="preserve"><defs id="defs1"><linearGradient id="linearGradient291"><stop style="stop-color:#ffab00;stop-opacity:1" id="stop290" offset="0"/><stop style="stop-color:#ff004c;stop-opacity:1" id="stop291" offset="1"/></linearGradient><linearGradient id="_lgradient_11" x1=".935" x2=".135" y1=".958" y2=".065" gradientTransform="scale(12.7)" gradientUnits="userSpaceOnUse" xlink:href="#_lgradient_0"><stop style="stop-color:#f3895f" id="stop4" offset="0%" stop-opacity="1"/><stop style="stop-color:#9622aa" id="stop5" offset="66.479%" stop-opacity="1"/><stop style="stop-color:#4a1eef" id="stop6" offset="100%" stop-opacity="1"/></linearGradient><clipPath id="_clipPath_vNtiCDZ4kcF1tHsxgi73DpQQhY2emtKj"><rect id="rect1" width="110" height="1220"/></clipPath><linearGradient id="linearGradient284" x1="0" x2="12.7" y1="6.35" y2="6.35" gradientUnits="userSpaceOnUse" xlink:href="#linearGradient291"/><linearGradient id="linearGradient294" x1=".58" x2="8.035" y1="4.211" y2="4.211" gradientUnits="userSpaceOnUse" xlink:href="#linearGradient291"/><linearGradient id="linearGradient295" x1=".58" x2="8.035" y1="4.211" y2="4.211" gradientUnits="userSpaceOnUse" xlink:href="#linearGradient291"/><linearGradient id="linearGradient296" x1=".58" x2="8.035" y1="4.211" y2="4.211" gradientUnits="userSpaceOnUse" xlink:href="#linearGradient291"/></defs><g id="layer1"><path style="baseline-shift:baseline;display:inline;overflow:visible;opacity:1;vector-effect:none;enable-background:accumulate;stop-color:#000;stop-opacity:1;fill:url(#linearGradient294);fill-opacity:1" id="path4" d="M 6.9275505,2.7017559 4.1174175,4.4572661 A 1.0235016,1.0235016 175.88657 0 1 3.1626646,4.5259285 L 1.0058594,3.5761719 0.58007812,4.5449219 3.1884239,5.6924011 A 1.1482885,1.1482885 175.6309 0 0 4.2675257,5.6099542 L 7.9525039,3.2637978 A 0.17912039,0.17912039 86.733984 0 0 7.934691,2.9516447 L 7.3729623,2.6782522 a 0.46040243,0.46040243 176.9794 0 0 -0.4454118,0.023504 z"/><path style="baseline-shift:baseline;display:inline;overflow:visible;vector-effect:none;enable-background:accumulate;stop-color:#000;fill:url(#linearGradient295);fill-opacity:1" id="path4-2" d="M 6.9275505,2.7017559 4.1174175,4.4572661 A 1.0235016,1.0235016 175.88657 0 1 3.1626646,4.5259285 L 1.0058594,3.5761719 0.58007812,4.5449219 3.1884239,5.6924011 A 1.1482885,1.1482885 175.6309 0 0 4.2675257,5.6099542 L 7.9525039,3.2637978 A 0.17912039,0.17912039 86.733984 0 0 7.934691,2.9516447 L 7.3729623,2.6782522 a 0.46040243,0.46040243 176.9794 0 0 -0.4454118,0.023504 z" transform="translate(0.08292087,2.0779562)"/><path style="baseline-shift:baseline;display:inline;overflow:visible;vector-effect:none;enable-background:accumulate;stop-color:#000;fill:url(#linearGradient296);fill-opacity:1" id="path4-2-2" d="M 6.9275505,2.7017559 4.1174175,4.4572661 A 1.0235016,1.0235016 175.88657 0 1 3.1626646,4.5259285 L 1.0058594,3.5761719 0.58007812,4.5449219 3.1884239,5.6924011 A 1.1482885,1.1482885 175.6309 0 0 4.2675257,5.6099542 L 7.9525039,3.2637978 A 0.17912039,0.17912039 86.733984 0 0 7.934691,2.9516447 L 7.3729623,2.6782522 a 0.46040243,0.46040243 176.9794 0 0 -0.4454118,0.023504 z" transform="translate(0.08292087,4.1709014)"/><path id="path6" fill="url(#_lgradient_11)" fill-rule="evenodd" d="M 11.288977,2.2576891 V 10.44231 c 0,0.467254 -0.379411,0.846667 -0.846666,0.846667 H 2.2576897 c -0.4672541,0 -0.8466667,-0.379413 -0.8466667,-0.846667 V 2.2576891 c 0,-0.4672541 0.3794126,-0.8466668 0.8466667,-0.8466668 h 8.1846213 c 0.467255,0 0.846666,0.3794127 0.846666,0.8466668 z M 12.7,1.9756432 v 8.7487128 c 0,1.090348 -0.885295,1.975645 -1.975642,1.975645 H 1.975644 C 0.88529595,12.700001 1.5e-7,11.814703 1.5e-7,10.724356 V 1.9756432 C 1.5e-7,0.8852952 0.88529595,-6e-7 1.975644,-6e-7 h 8.748714 C 11.814705,-6e-7 12.7,0.8852952 12.7,1.9756432 Z" style="isolation:isolate;fill:url(#linearGradient284);stroke-width:.264583;fill-opacity:1"/></g></svg>