<svg xmlns="http://www.w3.org/2000/svg" xmlns:xlink="http://www.w3.org/1999/xlink" style="isolation:isolate" width="64" height="64" viewBox="0 0 48 48"><linearGradient id="_lgradient_23" x1="-.014" x2="1.016" y1=".01" y2="1.072" gradientTransform="matrix(21.933,0,0,37.6,25.567,9.9)" gradientUnits="userSpaceOnUse"><stop offset="0%" stop-opacity="1" style="stop-color:#f9d423"/><stop offset="51.562%" stop-opacity="1" style="stop-color:#ff4e50"/><stop offset="99.13%" stop-opacity="1" style="stop-color:#8a2387"/></linearGradient><path fill="url(#_lgradient_23)" d="M 28.7 9.9 C 39.083 9.9 47.5 18.317 47.5 28.7 C 47.5 39.083 39.083 47.5 28.7 47.5 L 25.567 47.5 L 25.567 47.215 L 25.567 42.43 L 25.567 14.967 L 25.567 10.166 L 25.567 9.9 L 28.7 9.9 Z M 30.267 14.704 L 30.267 42.705 C 37.4 41.908 42.796 35.878 42.8 28.7 C 42.792 21.525 37.397 15.501 30.267 14.704 Z"/><linearGradient id="_lgradient_24" x1="0" x2=".907" y1=".5" y2=".92" gradientTransform="matrix(21.933,0,0,37.6,0.5,0.5)" gradientUnits="userSpaceOnUse"><stop offset="0%" stop-opacity="1" style="stop-color:#00c4ff"/><stop offset="83.888%" stop-opacity="1" style="stop-color:#0072ff"/></linearGradient><path fill="url(#_lgradient_24)" d="M 19.3 0.5 C 8.917 0.5 0.5 8.917 0.5 19.3 C 0.5 29.683 8.917 38.1 19.3 38.1 L 22.433 38.1 L 22.433 37.815 L 22.433 33.03 L 22.433 5.567 L 22.433 0.766 L 22.433 0.5 L 19.3 0.5 Z M 17.733 5.304 L 17.733 33.305 C 10.6 32.508 5.204 26.478 5.2 19.3 C 5.208 12.125 10.603 6.101 17.733 5.304 Z"/></svg>