<svg xmlns="http://www.w3.org/2000/svg" xmlns:svg="http://www.w3.org/2000/svg" xmlns:xlink="http://www.w3.org/1999/xlink" style="isolation:isolate" id="svg9" width="64" height="64" version="1.1" viewBox="0 0 48 48"><metadata id="metadata15"/><defs id="defs13"><linearGradient id="linearGradient275" x1="-.028" x2="1" y1=".961" y2=".492" gradientTransform="matrix(45,0,0,45,-45.482622,-75.07572)" gradientUnits="userSpaceOnUse"><stop style="stop-color:#faac80" id="stop273" offset="-97.261" stop-opacity="1"/><stop style="stop-color:#af68e5" id="stop271" offset="1" stop-opacity="1"/></linearGradient><linearGradient id="_lgradient_99" x1="0" x2="1" y1=".5" y2=".5" gradientTransform="matrix(48,0,0,47.249,-0.0407732,1.1536121)" gradientUnits="userSpaceOnUse"><stop style="stop-color:#d300dc" id="stop2-6" offset="0%" stop-opacity="1"/><stop style="stop-color:#8700ff" id="stop4-2" offset="100%" stop-opacity="1"/></linearGradient><linearGradient id="linearGradient1115" x1=".221" x2=".902" y1=".047" y2=".906" gradientTransform="matrix(43.5,0,0,44,5,2)" gradientUnits="userSpaceOnUse" xlink:href="#_lgradient_8"/><linearGradient id="_lgradient_7" x1=".417" x2=".68" y1=".019" y2=".964" gradientTransform="matrix(47,0,0,47.989,-40.470563,42.410791)" gradientUnits="userSpaceOnUse"><stop style="stop-color:#00cdd7" id="stop2-2" offset="28%" stop-opacity="1"/><stop style="stop-color:#2086d7" id="stop4-7" offset="94%" stop-opacity="1"/></linearGradient><linearGradient id="_lgradient_4" x1="0" x2="1" y1=".5" y2=".5" gradientTransform="matrix(15.726,0,0,10.26375,47.560727,-31.16573)" gradientUnits="userSpaceOnUse"><stop style="stop-color:#c6ffdd" id="stop16" offset="0%" stop-opacity="1"/><stop style="stop-color:#fbd786" id="stop18" offset="50%" stop-opacity="1"/><stop style="stop-color:#f7797d" id="stop20" offset="100%" stop-opacity="1"/></linearGradient><linearGradient id="_lgradient_5" x1="6.184" x2="34.483" y1="27.457" y2="27.457" gradientTransform="matrix(0.90756893,0,0,0.61978765,37.468727,-44.76098)" gradientUnits="userSpaceOnUse"><stop style="stop-color:#c6ffdd" id="stop23" offset="0%" stop-opacity="1"/><stop style="stop-color:#fbd786" id="stop25" offset="50%" stop-opacity="1"/><stop style="stop-color:#f7797d" id="stop27" offset="100%" stop-opacity="1"/></linearGradient><linearGradient id="_lgradient_4-9" x1="0" x2="1" y1=".5" y2=".5" gradientTransform="matrix(22.65324,0,0,14.784891,12.673445,16.607272)" gradientUnits="userSpaceOnUse"><stop style="stop-color:#c6ffdd" id="stop16-3" offset="0%" stop-opacity="1"/><stop style="stop-color:#fbd786" id="stop18-6" offset="50%" stop-opacity="1"/><stop style="stop-color:#f7797d" id="stop20-0" offset="100%" stop-opacity="1"/></linearGradient><linearGradient id="_lgradient_2" x1="-.59" x2="1.805" y1=".491" y2=".481" gradientTransform="matrix(23.235851,0,0,18.072328,12.382076,14.961311)" gradientUnits="userSpaceOnUse"><stop style="stop-color:#18d0ad" id="stop2-62" offset="0%" stop-opacity="1"/><stop style="stop-color:#07c3f2" id="stop4-6" offset="90.45%" stop-opacity="1"/></linearGradient><linearGradient id="_lgradient_3" x1="3.388" x2="43.963" y1="26.708" y2="27.042" gradientTransform="matrix(1.1253161,0,0,0.88863923,9.8644068,-55.425686)" gradientUnits="userSpaceOnUse"><stop style="stop-color:#18d0ad" id="stop7" offset="0%" stop-opacity="1"/><stop style="stop-color:#07c3f2" id="stop9" offset="90.45%" stop-opacity="1"/></linearGradient><linearGradient id="_lgradient_43" x1=".068" x2=".938" y1=".233" y2=".779" gradientTransform="matrix(47,0,0,44,-63.567797,-55.966102)" gradientUnits="userSpaceOnUse"><stop style="stop-color:#30cfd0" id="stop2-1" offset="0%" stop-opacity="1"/><stop style="stop-color:#330867" id="stop4-8" offset="98.261%" stop-opacity="1"/></linearGradient><linearGradient id="_lgradient_7-9" x1="-.028" x2="1" y1=".961" y2=".492" gradientTransform="matrix(45,0,0,45,1.5004291,-3.4825004)" gradientUnits="userSpaceOnUse"><stop style="stop-color:#af68e5" id="stop2-22" offset="0%" stop-opacity="1"/><stop style="stop-color:#faac80" id="stop4-89" offset="98.261%" stop-opacity="1"/></linearGradient><linearGradient id="_lgradient_46" x1="-.014" x2="1.016" y1=".01" y2="1.072" gradientTransform="matrix(46,0,0,46,13.817492,-84.554245)" gradientUnits="userSpaceOnUse"><stop style="stop-color:#f9d423" id="stop2-61" offset="0%" stop-opacity="1"/><stop style="stop-color:#ff4e50" id="stop4-29" offset="51.562%" stop-opacity="1"/><stop style="stop-color:#8a2387" id="stop6" offset="99.13%" stop-opacity="1"/></linearGradient><linearGradient id="_lgradient_29" x1="0" x2="1" y1=".5" y2=".5" gradientTransform="matrix(16.518607,0,0,17.090151,-21.505466,-94.128176)" gradientUnits="userSpaceOnUse"><stop style="stop-color:#757f9a" id="stop9-3" offset="0%" stop-opacity="1"/><stop style="stop-color:#d7dde8" id="stop11" offset="98.696%" stop-opacity="1"/></linearGradient><linearGradient id="_lgradient_0" x1="0" x2="1" y1=".5" y2=".5" gradientTransform="matrix(40.303623,0,0,36.79896,13.924153,-0.78130494)" gradientUnits="userSpaceOnUse"><stop style="stop-color:#5433ff" id="stop2-4" offset="0%" stop-opacity="1"/><stop style="stop-color:#20bdff" id="stop4-5" offset="51.739%" stop-opacity="1"/><stop style="stop-color:#a5fecb" id="stop6-0" offset="98.261%" stop-opacity="1"/></linearGradient><linearGradient id="_lgradient_8" x1=".486" x2=".507" y1="1.027" y2="-.035" gradientTransform="matrix(22.666711,0,0,28.581927,12.666644,9.7090083)" gradientUnits="userSpaceOnUse"><stop style="stop-color:#5433ff" id="stop2-610" offset="0%" stop-opacity="1"/><stop style="stop-color:#20bdff" id="stop4-63" offset="51.739%" stop-opacity="1"/><stop style="stop-color:#a5fecb" id="stop6-2" offset="98.261%" stop-opacity="1"/></linearGradient></defs><linearGradient id="_lgradient_25" x1=".221" x2=".902" y1=".047" y2=".906" gradientTransform="matrix(43.5,0,0,44,5,2)" gradientUnits="userSpaceOnUse"><stop style="stop-color:#ea8bf3;stop-opacity:1" id="stop2" offset="2.609%" stop-opacity="1"/><stop style="stop-color:#826ef5;stop-opacity:1" id="stop4" offset="98.696%" stop-opacity="1"/></linearGradient><path id="path7" d="m 43,22 v 0 0 0 M 42.94696,41.159588 C 42.944089,43.901178 40.755675,46 38.244,46 H 9.756 C 7.131,46 5,43.869 5,41.244 V 22 22 c 0,-1.104 0.811,-2 1.81,-2 v 0 c 0.998,0 1.809,0.896 1.809,2 v 0 17.146 c 0,1.575 1.279,2.854 2.854,2.854 h 25.054 c 1.575,0 2.854,-1.279 2.854,-2.854 V 23 23 23 22 8.854 C 39.381,7.279 38.102,6 36.527,6 H 11.473 C 9.898,6 8.619,7.279 8.619,8.854 V 14 14 c 0,1.104 -0.811,2 -1.809,2 v 0 C 5.811,16 5,15.104 5,14 V 14 6.756 C 5,4.131 7.131,2 9.756,2 h 28.488 c 2.511675,0 4.741663,2.1354107 4.73891,4.7685028 z m -18.940747,-26.924694 -5.454799,8.34033 c 1.265682,-1.140791 2.941454,-1.675149 4.532099,-1.445251 0.732568,0.105629 1.446495,0.372187 2.092695,0.814585 1.422261,0.974892 0.761771,3.199312 -0.961223,3.240321 -0.0044,6.21e-4 -0.0099,0.0019 -0.01367,0.0019 -1.432204,0.05095 -2.567403,1.226538 -2.568645,2.659363 0.0013,1.351428 1.013415,2.48787 2.355523,2.643828 0.40139,0.07829 0.854351,0.04971 1.419776,-0.04225 1.170616,-0.195724 2.873105,-0.710199 3.789591,-1.489367 2.30333,-1.828622 1.882058,-3.860424 0.49832,-6.007797 z m 0.753072,-2.059142 6.8491,9.834048 c 2.351795,3.378259 2.326941,7.026183 0.741266,9.780611 -1.585055,2.755049 -4.706077,4.636485 -8.347166,4.636485 -3.641089,0 -6.763975,-1.881436 -8.350894,-4.636485 -1.586918,-2.754428 -1.613015,-6.402352 0.741887,-9.778126 l 6.846615,-9.817271 c 0.658627,-0.832603 0.92767,-0.819556 1.519192,-0.01926 z m 1.533482,-1.062501 6.841022,9.829697 c 0.714549,1.006581 1.267547,2.112577 1.658995,3.286922 0.354167,1.087355 0.534358,2.218206 0.540571,3.361482 0,1.801904 -0.472223,3.572742 -1.366962,5.13232 -0.987941,1.690063 -2.40461,3.088092 -4.107099,4.044965 -1.789476,1.00658 -3.802638,1.528512 -5.859295,1.522298 -2.050442,0.0063 -4.069817,-0.515718 -5.859295,-1.522298 -1.702489,-0.956873 -3.119158,-2.354902 -4.100885,-4.044965 -0.900952,-1.559578 -1.373175,-3.330416 -1.373175,-5.13232 0.0063,-1.143276 0.186404,-2.274127 0.540571,-3.361482 0.391449,-1.174345 0.95066,-2.280341 1.658995,-3.286922 l 6.847235,-9.817271 c 0.0063,-0.01243 0.01864,-0.02486 0.03106,-0.03728 0.198831,-0.273392 0.428728,-0.528145 0.689694,-0.751829 0.434943,-0.3914477 1.000368,-0.6151327 1.584433,-0.6275597 0.602706,0.0063 1.180558,0.242325 1.621714,0.6524137 0.242325,0.223684 0.459796,0.478436 0.652414,0.751829 z m -3.872851,11.706784 c -1.346457,-0.06027 -2.733302,0.687209 -3.557829,2.172847 -1.198577,2.160421 -1.047589,4.74895 0.680375,6.603047 2.510859,2.694158 6.206627,2.194595 8.00791,0.308188 -1.205412,0.367837 -2.285312,0.520066 -3.245913,0.42438 -0.0031,0 -0.0056,0 -0.0087,0 -2.451211,0 -4.438276,-1.987066 -4.438276,-4.438277 0.0019,-2.184032 1.591889,-4.042479 3.749824,-4.381113 0.185782,-0.05281 0.37405,-0.09134 0.566047,-0.09879 -0.538086,-0.368459 -1.141414,-0.56294 -1.75344,-0.590279 z" style="fill:url(#linearGradient1115);fill-opacity:1;fill-rule:evenodd"/></svg>