<svg xmlns="http://www.w3.org/2000/svg" xmlns:svg="http://www.w3.org/2000/svg" xmlns:xlink="http://www.w3.org/1999/xlink" id="svg1" width="22" height="22" version="1.1"><defs id="defs1"><linearGradient id="linearGradient52" x1="0" x2="1" y1=".5" y2=".5" gradientTransform="matrix(16,0,0,19.111111,3.0000001,1.4444444)" gradientUnits="userSpaceOnUse" spreadMethod="pad"><stop id="stop51" offset="0" stop-opacity="1" style="stop-color:#72f706;stop-opacity:1"/><stop id="stop52" offset=".978" stop-opacity="1" style="stop-color:#b8ff24;stop-opacity:1"/></linearGradient><linearGradient id="linearGradient50" x1="0" x2="1" y1=".5" y2=".5" gradientTransform="matrix(16,0,0,19.111111,3.0000001,1.4444444)" gradientUnits="userSpaceOnUse" spreadMethod="pad"><stop id="stop49" offset="0" stop-opacity="1" style="stop-color:#06f751;stop-opacity:1"/><stop id="stop50" offset=".978" stop-opacity="1" style="stop-color:#b8ff24;stop-opacity:1"/></linearGradient><linearGradient id="linearGradient48" x1="0" x2="1" y1=".5" y2=".5" gradientTransform="matrix(16,0,0,19.111111,3.0000001,1.4444444)" gradientUnits="userSpaceOnUse" spreadMethod="pad"><stop id="stop47" offset="0" stop-opacity="1" style="stop-color:#06f7e6;stop-opacity:1"/><stop id="stop48" offset=".978" stop-opacity="1" style="stop-color:#b8ff24;stop-opacity:1"/></linearGradient><linearGradient id="linearGradient46" x1="0" x2="1" y1=".5" y2=".5" gradientTransform="matrix(16,0,0,19.111111,3.0000001,1.4444444)" gradientUnits="userSpaceOnUse" spreadMethod="pad"><stop id="stop45" offset="0" stop-opacity="1" style="stop-color:#06f7f7;stop-opacity:1"/><stop id="stop46" offset=".978" stop-opacity="1" style="stop-color:#b8ff24;stop-opacity:1"/></linearGradient><linearGradient id="linearGradient44" x1="0" x2="1" y1=".5" y2=".5" gradientTransform="matrix(16,0,0,19.111111,3.0000001,1.4444444)" gradientUnits="userSpaceOnUse" spreadMethod="pad"><stop id="stop43" offset="0" stop-opacity="1" style="stop-color:#06f7d1;stop-opacity:1"/><stop id="stop44" offset=".978" stop-opacity="1" style="stop-color:#b8ff24;stop-opacity:1"/></linearGradient><linearGradient id="linearGradient42" x1="0" x2="1" y1=".5" y2=".5" gradientTransform="matrix(16,0,0,19.111111,3.0000001,1.4444444)" gradientUnits="userSpaceOnUse" spreadMethod="pad"><stop id="stop41" offset="0" stop-opacity="1" style="stop-color:#06f7c0;stop-opacity:1"/><stop id="stop42" offset=".978" stop-opacity="1" style="stop-color:#b8ff24;stop-opacity:1"/></linearGradient><linearGradient id="linearGradient40" x1="0" x2="1" y1=".5" y2=".5" gradientTransform="matrix(16,0,0,19.111111,3.0000001,1.4444444)" gradientUnits="userSpaceOnUse" spreadMethod="pad"><stop id="stop39" offset="0" stop-opacity="1" style="stop-color:#06f7af;stop-opacity:1"/><stop id="stop40" offset=".978" stop-opacity="1" style="stop-color:#b8ff24;stop-opacity:1"/></linearGradient><linearGradient id="linearGradient38" x1="0" x2="1" y1=".5" y2=".5" gradientTransform="matrix(16,0,0,19.111111,3.0000001,1.4444444)" gradientUnits="userSpaceOnUse" spreadMethod="pad"><stop id="stop37" offset="0" stop-opacity="1" style="stop-color:#06f77c;stop-opacity:1"/><stop id="stop38" offset=".978" stop-opacity="1" style="stop-color:#b8ff24;stop-opacity:1"/></linearGradient><linearGradient id="linearGradient36" x1="0" x2="1" y1=".5" y2=".5" gradientTransform="matrix(16,0,0,19.111111,3.0000001,1.4444444)" gradientUnits="userSpaceOnUse" spreadMethod="pad"><stop id="stop35" offset="0" stop-opacity="1" style="stop-color:#06f711;stop-opacity:1"/><stop id="stop36" offset=".978" stop-opacity="1" style="stop-color:#b8ff24;stop-opacity:1"/></linearGradient><linearGradient id="linearGradient34" x1="0" x2="1" y1=".5" y2=".5" gradientTransform="matrix(16,0,0,19.111111,3.0000001,1.4444444)" gradientUnits="userSpaceOnUse" spreadMethod="pad"><stop id="stop33" offset="0" stop-opacity="1" style="stop-color:#36f706;stop-opacity:1"/><stop id="stop34" offset=".978" stop-opacity="1" style="stop-color:#b8ff24;stop-opacity:1"/></linearGradient><linearGradient id="linearGradient32" x1="0" x2="1" y1=".5" y2=".5" gradientTransform="matrix(16,0,0,19.111111,3.0000001,1.4444444)" gradientUnits="userSpaceOnUse" spreadMethod="pad"><stop id="stop31" offset="0" stop-opacity="1" style="stop-color:#3af706;stop-opacity:1"/><stop id="stop32" offset=".978" stop-opacity="1" style="stop-color:#b8ff24;stop-opacity:1"/></linearGradient><linearGradient id="linearGradient30" x1="0" x2="1" y1=".5" y2=".5" gradientTransform="matrix(16,0,0,19.111111,3.0000001,1.4444444)" gradientUnits="userSpaceOnUse" spreadMethod="pad"><stop id="stop29" offset="0" stop-opacity="1" style="stop-color:#f7ec06;stop-opacity:1"/><stop id="stop30" offset=".978" stop-opacity="1" style="stop-color:#b8ff24;stop-opacity:1"/></linearGradient><linearGradient id="linearGradient28" x1="0" x2="1" y1=".5" y2=".5" gradientTransform="matrix(16,0,0,19.111111,3.0000001,1.4444444)" gradientUnits="userSpaceOnUse" spreadMethod="pad"><stop id="stop27" offset="0" stop-opacity="1" style="stop-color:#f7ec06;stop-opacity:1"/><stop id="stop28" offset=".978" stop-opacity="1" style="stop-color:#b8ff24;stop-opacity:1"/></linearGradient><linearGradient id="linearGradient26" x1="0" x2="1" y1=".5" y2=".5" gradientTransform="matrix(16,0,0,19.111111,3.0000001,1.4444444)" gradientUnits="userSpaceOnUse" spreadMethod="pad"><stop id="stop25" offset="0" stop-opacity="1" style="stop-color:#f7ec06;stop-opacity:1"/><stop id="stop26" offset=".978" stop-opacity="1" style="stop-color:#b8ff24;stop-opacity:1"/></linearGradient><linearGradient id="linearGradient24" x1="0" x2="1" y1=".5" y2=".5" gradientTransform="matrix(16,0,0,19.111111,3.0000001,1.4444444)" gradientUnits="userSpaceOnUse" spreadMethod="pad"><stop id="stop23" offset="0" stop-opacity="1" style="stop-color:#f7ec06;stop-opacity:1"/><stop id="stop24" offset=".978" stop-opacity="1" style="stop-color:#b8ff24;stop-opacity:1"/></linearGradient><linearGradient id="linearGradient22" x1="0" x2="1" y1=".5" y2=".5" gradientTransform="matrix(16,0,0,19.111111,3.0000001,1.4444444)" gradientUnits="userSpaceOnUse" spreadMethod="pad"><stop id="stop21" offset="0" stop-opacity="1" style="stop-color:#f7ec06;stop-opacity:1"/><stop id="stop22" offset=".978" stop-opacity="1" style="stop-color:#b8ff24;stop-opacity:1"/></linearGradient><linearGradient id="linearGradient21" x1="0" x2="1" y1=".5" y2=".5" gradientTransform="matrix(16,0,0,19.111111,3.0000001,1.4444444)" gradientUnits="userSpaceOnUse" spreadMethod="pad"><stop id="stop13" offset="0" stop-opacity="1" style="stop-color:#f7d606;stop-opacity:1"/><stop id="stop14" offset=".978" stop-opacity="1" style="stop-color:#b8ff24;stop-opacity:1"/></linearGradient><linearGradient id="linearGradient12" x1="0" x2="1" y1=".5" y2=".5" gradientTransform="matrix(16,0,0,19.111111,3.0000001,1.4444444)" gradientUnits="userSpaceOnUse" spreadMethod="pad"><stop id="stop11" offset="0" stop-opacity="1" style="stop-color:#f7d606;stop-opacity:1"/><stop id="stop12" offset=".978" stop-opacity="1" style="stop-color:#b8ff24;stop-opacity:1"/></linearGradient><linearGradient id="linearGradient10" x1="0" x2="1" y1=".5" y2=".5" gradientTransform="matrix(16,0,0,19.111111,3.0000001,1.4444444)" gradientUnits="userSpaceOnUse" spreadMethod="pad"><stop id="stop9" offset="0" stop-opacity="1" style="stop-color:#f7d206;stop-opacity:1"/><stop id="stop10" offset=".978" stop-opacity="1" style="stop-color:#b8ff24;stop-opacity:1"/></linearGradient><linearGradient id="linearGradient8" x1="0" x2="1" y1=".5" y2=".5" gradientTransform="matrix(16,0,0,19.111111,3.0000001,1.4444444)" gradientUnits="userSpaceOnUse" spreadMethod="pad"><stop id="stop7" offset="0" stop-opacity="1" style="stop-color:#f7ca06;stop-opacity:1"/><stop id="stop8" offset=".978" stop-opacity="1" style="stop-color:#b8ff24;stop-opacity:1"/></linearGradient><linearGradient id="linearGradient6" x1="0" x2="1" y1=".5" y2=".5" gradientTransform="matrix(16,0,0,19.111111,3.0000001,1.4444444)" gradientUnits="userSpaceOnUse" spreadMethod="pad"><stop id="stop5" offset="0" stop-opacity="1" style="stop-color:#f1f706;stop-opacity:1"/><stop id="stop6" offset=".978" stop-opacity="1" style="stop-color:#b8ff24;stop-opacity:1"/></linearGradient><linearGradient id="linearGradient4" x1="0" x2="1" y1=".5" y2=".5" gradientTransform="matrix(16,0,0,19.111111,3.0000001,1.4444444)" gradientUnits="userSpaceOnUse"><stop id="stop3" offset="0" stop-opacity="1" style="stop-color:#edf706;stop-opacity:1"/><stop id="stop4" offset=".978" stop-opacity="1" style="stop-color:#b8ff24;stop-opacity:1"/></linearGradient><style id="current-color-scheme" type="text/css"/><linearGradient id="_lgradient_27" x1="0" x2="1" y1=".5" y2=".5" gradientTransform="matrix(16,0,0,19.111111,3.0000001,1.4444444)" gradientUnits="userSpaceOnUse" spreadMethod="pad"><stop id="stop1" offset="0" stop-opacity="1" style="stop-color:#f7f206;stop-opacity:1"/><stop id="stop2" offset=".978" stop-opacity="1" style="stop-color:#ffbb24;stop-opacity:1"/></linearGradient><linearGradient id="linearGradient55" x1="5.414" x2="16.586" y1="11.478" y2="11.478" gradientUnits="userSpaceOnUse" xlink:href="#_lgradient_27"/><linearGradient id="linearGradient56" x1="5.414" x2="16.586" y1="12.816" y2="12.816" gradientUnits="userSpaceOnUse" xlink:href="#_lgradient_27"/><linearGradient id="linearGradient57" x1="5.414" x2="16.586" y1="14.155" y2="14.155" gradientUnits="userSpaceOnUse" xlink:href="#_lgradient_27"/><linearGradient id="linearGradient58" x1="5.414" x2="16.586" y1="15.493" y2="15.493" gradientUnits="userSpaceOnUse" xlink:href="#_lgradient_27"/><linearGradient id="linearGradient59" x1="5.414" x2="16.586" y1="16.832" y2="16.832" gradientUnits="userSpaceOnUse" xlink:href="#_lgradient_27"/><linearGradient id="linearGradient60" x1="5.414" x2="16.586" y1="18.17" y2="18.17" gradientUnits="userSpaceOnUse" xlink:href="#_lgradient_27"/></defs><path style="isolation:isolate;fill:url(#_lgradient_27);stroke-width:.444443" id="path2" fill="url(#_lgradient_27)" fill-rule="evenodd" d="M 9.2222226,3.6666668 V 3.222222 H 12.777778 V 3.6666668 Z M 17.222222,10.777778 V 9.8888886 6.3333332 c 0,-0.4906664 -0.398222,-0.8888888 -0.888888,-0.8888888 H 5.6666665 c -0.4906664,0 -0.8888888,0.3982224 -0.8888888,0.8888888 v 3.5555554 0.8888894 0.888889 6.222223 c 0,0.490666 0.3982224,0.888889 0.8888888,0.888889 H 16.333334 c 0.490666,0 0.888888,-0.398223 0.888888,-0.888889 v -6.222223 z m 1.777778,0 V 9.8888886 5.4444444 C 19,4.4631108 18.203555,3.6666668 17.222222,3.6666668 H 14.555555 V 2.3333332 c 0,-0.4906664 -0.398221,-0.8888888 -0.888889,-0.8888888 H 8.3333329 c -0.4906664,0 -0.888888,0.3982224 -0.888888,0.8888888 v 1.3333336 0 0 0 H 4.7777777 c -0.9813336,0 -1.7777776,0.796444 -1.7777776,1.7777776 v 4.4444442 0.8888894 0.888889 7.111112 c 0,0.981333 0.796444,1.777777 1.7777776,1.777777 H 17.222222 C 18.203555,20.555556 19,19.759112 19,18.777779 v -7.111112 z"/><path style="opacity:.800766;fill:url(#linearGradient55);stroke-width:.584627;stroke-linejoin:round;fill-opacity:1" id="rect5" d="M 5.9139243,10.977702 H 16.086076 c 0.276791,0 0.499623,0.222832 0.499623,0.499624 v 7.53e-4 c 0,0.276791 -0.222832,0.499623 -0.499623,0.499623 H 5.9139243 c -0.2767913,0 -0.4996234,-0.222832 -0.4996234,-0.499623 v -7.53e-4 c 0,-0.276792 0.2228321,-0.499624 0.4996234,-0.499624 z"/><path style="opacity:.800766;fill:url(#linearGradient56);stroke-width:.584627;stroke-linejoin:round;fill-opacity:1" id="rect6" d="M 5.9139243,12.316212 H 16.086076 c 0.276791,0 0.499623,0.222832 0.499623,0.499623 v 7.53e-4 c 0,0.276792 -0.222832,0.499624 -0.499623,0.499624 H 5.9139243 c -0.2767913,0 -0.4996234,-0.222832 -0.4996234,-0.499624 v -7.53e-4 c 0,-0.276791 0.2228321,-0.499623 0.4996234,-0.499623 z"/><path style="opacity:.800766;fill:url(#linearGradient57);stroke-width:.584627;stroke-linejoin:round;fill-opacity:1" id="rect7" d="M 5.9139243,13.65472 H 16.086076 c 0.276791,0 0.499623,0.222832 0.499623,0.499624 v 7.53e-4 c 0,0.276791 -0.222832,0.499623 -0.499623,0.499623 H 5.9139243 c -0.2767913,0 -0.4996234,-0.222832 -0.4996234,-0.499623 v -7.53e-4 c 0,-0.276792 0.2228321,-0.499624 0.4996234,-0.499624 z"/><path style="opacity:.800766;fill:url(#linearGradient58);stroke-width:.584627;stroke-linejoin:round;fill-opacity:1" id="rect8" d="M 5.9139243,14.993229 H 16.086076 c 0.276791,0 0.499623,0.222832 0.499623,0.499623 v 7.53e-4 c 0,0.276792 -0.222832,0.499624 -0.499623,0.499624 H 5.9139243 c -0.2767913,0 -0.4996234,-0.222832 -0.4996234,-0.499624 v -7.53e-4 c 0,-0.276791 0.2228321,-0.499623 0.4996234,-0.499623 z"/><path style="opacity:.800766;fill:url(#linearGradient59);stroke-width:.584627;stroke-linejoin:round;fill-opacity:1" id="rect9" d="M 5.9139243,16.331734 H 16.086076 c 0.276791,0 0.499623,0.222832 0.499623,0.499623 v 7.53e-4 c 0,0.276792 -0.222832,0.499624 -0.499623,0.499624 H 5.9139243 c -0.2767913,0 -0.4996234,-0.222832 -0.4996234,-0.499624 v -7.53e-4 c 0,-0.276791 0.2228321,-0.499623 0.4996234,-0.499623 z"/><path style="opacity:.800766;fill:url(#linearGradient60);stroke-width:.584627;stroke-linejoin:round;fill-opacity:1" id="rect10" d="M 5.9139243,17.670242 H 16.086076 c 0.276791,0 0.499623,0.222832 0.499623,0.499624 v 7.53e-4 c 0,0.276791 -0.222832,0.499623 -0.499623,0.499623 H 5.9139243 c -0.2767913,0 -0.4996234,-0.222832 -0.4996234,-0.499623 v -7.53e-4 c 0,-0.276792 0.2228321,-0.499624 0.4996234,-0.499624 z"/></svg>